<svg id="Layer_1" fill="#d5867a" enable-background="new 0 0 512.113 512.113" height="512" viewBox="0 0 512.113 512.113" width="512" xmlns="http://www.w3.org/2000/svg"><g><path d="m497.113 482.06h-11.957v-325.51c0-8.284-6.716-15-15-15h-92.208c-8.284 0-15 6.716-15 15v325.51h-27.975v-190.618c0-8.284-6.716-15-15-15h-92.208c-8.284 0-15 6.716-15 15v190.618h-27.975v-110.462c0-8.284-6.716-15-15-15h-92.207c-8.284 0-15 6.716-15 15v110.462h-32.583v-142.222h9.55c8.284 0 15-6.716 15-15s-6.716-15-15-15h-9.55v-51.991h9.55c8.284 0 15-6.716 15-15s-6.716-15-15-15h-9.55v-51.991h9.55c8.284 0 15-6.716 15-15s-6.716-15-15-15h-9.55v-51.992h9.55c8.284 0 15-6.716 15-15s-6.716-15-15-15h-9.55v-48.812c0-8.284-6.716-15-15-15s-15 6.716-15 15v482.008c0 8.284 6.716 15 15 15h482.113c8.284 0 15-6.716 15-15s-6.716-15-15-15zm-342.322 0h-62.208v-95.462h62.208zm150.183 0h-62.208v-175.618h62.208zm150.182 0h-62.208v-310.51h62.208z"/><path d="m126.901 255.506c3.839 0 7.678-1.464 10.606-4.394l118.107-118.107v31.754c0 8.284 6.716 15 15 15s15-6.716 15-15v-67.967c.084-7.132-5.953-15.101-15.005-15h-67.143c-8.284 0-15 6.716-15 15s6.716 15 15 15h30.936l-118.107 118.108c-9.467 9.316-2.515 25.753 10.606 25.606z"/></g></svg>